<svg xmlns="http://www.w3.org/2000/svg" viewBox="0 0 176 128" width="176" height="128" fill="none"><rect x="8" y="14" width="160" height="100" rx="8" fill="#d5cec3" stroke="#c6bdaf"/><g fill="#8b8272" opacity=".5"><rect x="20" y="60.0" width="3" height="8.0" rx="1.5"/><rect x="25.4" y="45.7" width="3" height="36.7" rx="1.5"/><rect x="30.8" y="40.0" width="3" height="48.0" rx="1.5"/><rect x="36.2" y="46.5" width="3" height="35.0" rx="1.5"/><rect x="41.6" y="58.8" width="3" height="10.3" rx="1.5"/><rect x="47" y="44.9" width="3" height="38.3" rx="1.5"/><rect x="52.400000000000006" y="40.1" width="3" height="47.8" rx="1.5"/><rect x="57.800000000000004" y="47.4" width="3" height="33.3" rx="1.5"/><rect x="63.2" y="57.7" width="3" height="12.7" rx="1.5"/><rect x="68.6" y="44.1" width="3" height="39.7" rx="1.5"/><rect x="74" y="40.2" width="3" height="47.6" rx="1.5"/><rect x="79.4" y="48.3" width="3" height="31.4" rx="1.5"/><rect x="84.80000000000001" y="56.5" width="3" height="15.0" rx="1.5"/><rect x="90.2" y="43.4" width="3" height="41.1" rx="1.5"/><rect x="95.60000000000001" y="40.4" width="3" height="47.2" rx="1.5"/><rect x="101" y="49.3" width="3" height="29.5" rx="1.5"/><rect x="106.4" y="55.4" width="3" height="17.3" rx="1.5"/><rect x="111.80000000000001" y="42.8" width="3" height="42.4" rx="1.5"/><rect x="117.2" y="40.7" width="3" height="46.6" rx="1.5"/><rect x="122.60000000000001" y="50.3" width="3" height="27.5" rx="1.5"/><rect x="128" y="54.2" width="3" height="19.5" rx="1.5"/><rect x="133.4" y="42.2" width="3" height="43.5" rx="1.5"/><rect x="138.8" y="41.0" width="3" height="46.0" rx="1.5"/><rect x="144.2" y="51.3" width="3" height="25.4" rx="1.5"/><rect x="149.60000000000002" y="53.1" width="3" height="21.7" rx="1.5"/><rect x="155" y="41.7" width="3" height="44.5" rx="1.5"/></g><rect x="20" y="92" width="136" height="6" rx="3" fill="#c9c1b3"/><rect x="20" y="92" width="78" height="6" rx="3" fill="#a8724d"/><circle cx="26" cy="26" r="3" fill="#a8724d"/><circle cx="36" cy="26" r="3" fill="#bbb2a3"/><circle cx="46" cy="26" r="3" fill="#bbb2a3"/></svg>